
<svg viewBox="0 0 990 773" version="1.1" xmlns="http://www.w3.org/2000/svg" xmlns:xlink="http://www.w3.org/1999/xlink">
    <g id="Page-1" stroke="none" stroke-width="1" fill="none" fill-rule="evenodd">
        <g id="Desktop-HD" transform="translate(-441.000000, -228.000000)">
            <g id="undraw_wandering_mind_0mkm" transform="translate(936.000000, 614.500000) scale(-1, 1) translate(-936.000000, -614.500000) translate(441.000000, 228.000000)" fill-rule="nonzero">
                <ellipse id="Oval" fill="#3F3D56" cx="495" cy="749.61479" rx="495" ry="23"></ellipse>
                <ellipse id="Oval" fill="#000000" opacity="0.1" cx="732" cy="753.61479" rx="115" ry="16"></ellipse>
                <ellipse id="Oval" fill="#000000" opacity="0.1" cx="328" cy="750.61479" rx="145" ry="19"></ellipse>
                <polygon id="Path" fill="#6C63FF" points="501.73 222.8 527.131 216.994 546 222.8 402.305 736.618 381.985 748.23 402.305 485.515"></polygon>
                <polygon id="Path" fill="#000000" opacity="0.1" points="501.73 222.8 527.131 216.994 546 222.8 402.305 736.618 381.985 748.23 402.305 485.515"></polygon>
                <polygon id="Path" fill="#3F51B5" points="384.525 747.867 529.671 217.357 143.582 63.502"></polygon>
                <path d="M216.87316,494.03846 C257.50187,530.7909 249.837,567.77517 222.8874,597.56713 C222.2614,598.25913 221.6307,598.940817 220.9953,599.61219 C219.71652,600.96597 218.417637,602.275397 217.09865,603.54047 C190.87192,628.70655 157.06053,636.10889 119.27593,601.92919 C80.17355,566.5574 76.03466,471.9434 75.77638,464.89487 C75.77938,464.8916 75.77938,464.8916 75.77903,464.88528 C75.76877,464.61711 75.76518,464.48135 75.76518,464.48135 C75.76518,464.48135 176.24776,457.28899 216.87316,494.03846 Z" id="Path" fill="#3F51B5"></path>
                <path d="M214.89664,593.90879 L205.17723,549.2419 L217.87793,596.69596 L220.9953,599.61219 C219.71652,600.96597 218.417637,602.275397 217.09865,603.54047 L178.37622,564.6474 L178.04674,564.3794 L178.02003,564.2891 L174.36203,560.61282 L125.7552,552.69882 L171.5387,557.95053 L172.39813,558.63765 L143.14163,529.25265 L96.09348,517.55911 L137.93348,524.16211 L75.77635,464.89492 L75.57042,464.69666 L75.779,464.88533 L125.73808,510.58359 L121.11642,475.68149 L129.99626,514.56802 L157.08941,539.88902 L144.97858,500.23502 L161.0752,543.60885 L176.14058,557.6884 L160.12871,501.55597 L181.39365,562.60285 L214.89664,593.90879 Z" id="Path" fill="#3F3D56"></path>
                <path d="M325,424.6148 C231.111593,424.6148 155,500.726393 155,594.6148 C155,688.503207 231.111593,764.6148 325,764.6148 C418.888407,764.6148 495,688.503207 495,594.6148 C495,500.726393 418.888407,424.6148 325,424.6148 Z M328,636.1148 C308.94629,636.1148 293.5,617.31072 293.5,594.1148 C293.5,570.91888 308.94629,552.1148 328,552.1148 C347.05371,552.1148 362.5,570.9188 362.5,594.1148 C362.5,617.3108 347.05371,636.1148 328,636.1148 L328,636.1148 Z" id="Shape" fill="#3F3D56"></path>
                <path d="M327,636.1148 C307.94629,636.1148 292.5,617.31072 292.5,594.1148 C292.5,570.91888 307.94629,552.1148 327,552.1148 C345.45313,552.1148 360.52222,569.75219 361.4541,591.93499 C361.47534,591.3297 361.5,590.72527 361.5,590.1148 C361.495464,567.192685 346.195836,547.090929 324.10324,540.980235 C302.010644,534.869541 278.555832,544.252027 266.772828,563.913772 C254.989825,583.575516 257.7751,608.683313 273.580855,625.284562 C289.38661,641.885811 314.32751,645.899631 334.5437,635.09551 C332.085537,635.768676 329.548668,636.111453 327,636.1148 Z" id="Path" fill="#000000" opacity="0.1"></path>
                <path d="M148.29892,-1.42108547e-14 C118.652269,-1.42108547e-14 91.9248165,17.8587043 80.5795317,45.2486369 C69.2342468,72.6385696 75.5053897,104.165748 96.468736,125.129097 C117.432082,146.092446 148.95926,152.363593 176.349194,141.018312 C203.739128,129.673031 221.59784,102.945581 221.59784,73.29893 C221.59784,53.858846 213.875301,35.2149763 200.129087,21.4687601 C186.382873,7.72254399 167.739004,-1.42108547e-14 148.29892,-1.42108547e-14 L148.29892,-1.42108547e-14 Z M149.59243,91.19249 C141.37704,91.19249 134.71706,83.08473 134.71706,73.08334 C134.71706,63.08195 141.37706,54.9742 149.59243,54.9742 C157.8078,54.9742 164.4678,63.08193 164.4678,73.08334 C164.4678,83.08475 157.80782,91.19249 149.59243,91.19249 Z" id="Shape" fill="#3F3D56"></path>
                <path d="M149.16126,91.19249 C140.94587,91.19249 134.28589,83.08473 134.28589,73.08334 C134.28589,63.08195 140.94589,54.9742 149.16126,54.9742 C157.1177,54.9742 163.61504,62.57891 164.01684,72.14347 C164.026,71.88247 164.03663,71.62188 164.03663,71.35866 C164.034674,61.4753266 157.43793,52.8080479 147.91226,50.1732991 C138.386591,47.5385503 128.273575,51.5839994 123.193095,60.0615586 C118.112615,68.5391177 119.313544,79.364852 126.128516,86.5228155 C132.943488,93.6807789 143.697262,95.4114168 152.41388,90.753 C151.353993,91.0432483 150.26017,91.1910443 149.16126,91.19249 L149.16126,91.19249 Z" id="Path" fill="#000000" opacity="0.1"></path>
                <path d="M682,661.6148 L671,661.6148 L671,754.6148 C671,754.6148 742,777.6148 811,754.6148 L811,661.6148 L682,661.6148 Z" id="Path" fill="#3F3D56"></path>
                <ellipse id="Oval" fill="#3F3D56" cx="740" cy="662.11479" rx="69" ry="10.5"></ellipse>
                <ellipse id="Oval" fill="#000000" opacity="0.1" cx="740" cy="662.11479" rx="69" ry="10.5"></ellipse>
                <path d="M820.20805,550.50089 C802.80161,614.84552 743.18065,654.69577 743.18065,654.69577 C743.18065,654.69577 711.78109,590.22277 729.18753,525.87813 C746.59397,461.53349 806.21492,421.68325 806.21492,421.68325 C806.21492,421.68325 837.61448,486.15626 820.20805,550.50089 Z" id="Path" fill="#3F3D56"></path>
                <path d="M661.85806,550.50089 C679.26449,614.84552 738.88546,654.69577 738.88546,654.69577 C738.88546,654.69577 770.28501,590.22277 752.87858,525.87813 C735.47215,461.53349 675.85119,421.68325 675.85119,421.68325 C675.85119,421.68325 644.45163,486.15626 661.85806,550.50089 Z" id="Path" fill="#3F51B5"></path>
                <path d="M687.43558,536.67254 C735.19909,583.16838 741.03305,654.64331 741.03305,654.64331 C741.03305,654.64331 669.42705,650.73359 621.66358,604.23775 C573.90011,557.74191 568.06611,486.26697 568.06611,486.26697 C568.06611,486.26697 639.67208,490.17669 687.43558,536.67254 Z" id="Path" fill="#3F3D56"></path>
                <path d="M794.63052,536.67254 C746.867,583.1684 741.03305,654.64331 741.03305,654.64331 C741.03305,654.64331 812.63905,650.73359 860.40253,604.23775 C908.16601,557.74191 914,486.26697 914,486.26697 C914,486.26697 842.394,490.17669 794.63052,536.67254 Z" id="Path" fill="#3F3D56"></path>
                <circle id="Oval" fill="#3F51B5" cx="741" cy="421.61479" r="22"></circle>
                <path d="M331.43617,249.9684 C331.43617,249.9684 373.78255,251.1197 380.77632,253.66416 C387.77009,256.20862 390.89743,274.40376 390.89743,274.40376 L358.01824,284.73813 L333.42635,283.34513 L314.91847,284.65296 L325.25268,257.58764 L331.43617,249.9684 Z" id="Path" fill="#2F2E41"></path>
                <path d="M333.26275,236.07331 C333.26275,236.07331 336.04891,246.83403 329.86542,254.45331 C323.68193,262.07259 356.4475,289.223 356.4475,289.223 L373.73289,286.252 C373.73289,286.252 369.92319,253.188 375.04055,244.81538 C380.15791,236.44276 333.26275,236.07331 333.26275,236.07331 Z" id="Path" fill="#9F616A"></path>
                <path d="M333.26275,236.07331 C333.26275,236.07331 336.04891,246.83403 329.86542,254.45331 C323.68193,262.07259 356.4475,289.223 356.4475,289.223 L373.73289,286.252 C373.73289,286.252 369.92319,253.188 375.04055,244.81538 C380.15791,236.44276 333.26275,236.07331 333.26275,236.07331 Z" id="Path" fill="#000000" opacity="0.1"></path>
                <polygon id="Path" fill="#9F616A" points="448.22 550.693 410.081 601.27 436.109 616.465 471.931 557.857"></polygon>
                <path d="M421.46761,602.12261 C421.46761,602.12261 407.42318,585.80386 408.04861,589.44289 C408.67404,593.08192 398.05561,623.94264 407.93499,626.92775 C417.81437,629.91286 502.53561,637.83037 503.70121,628.26375 C504.86681,618.69713 478.427,612.00185 478.427,612.00185 C478.427,612.00185 462.71942,596.9056 459.23676,598.44085 C455.7541,599.9761 421.46761,602.12261 421.46761,602.12261 Z" id="Path" fill="#2F2E41"></path>
                <polygon id="Path" fill="#9F616A" points="439.663 598.995 470.126 650.894 493.125 637.575 462.407 595.086"></polygon>
                <path d="M487.75164,475.52395 L478.71096,488.31745 C478.71096,488.31745 435.61135,548.17678 440.18858,553.00985 C444.76581,557.84292 463.82813,576.1091 473.52273,572.56955 C483.21733,569.03 517.66,507.8487 517.66,507.8487 L508.676,471.92751 L487.75164,475.52395 Z" id="Path" fill="#2F2E41"></path>
                <path d="M302.09,463.41331 C302.09,463.41331 311.742,481.42365 336.206,487.5218 C360.67,493.61995 386.22851,506.0864 387.13827,505.93004 C388.04803,505.77368 390.62093,504.39481 391.2464,508.03384 C391.87187,511.67287 398.5814,518.01273 398.5814,518.01273 C398.5814,518.01273 425.60429,609.84132 435.9244,609.941794 C446.24451,610.04028 467.45317,602.64843 467.89383,599.7628 C468.33449,596.87717 436.29369,503.10113 435.98096,501.28162 L432.228,479.4474 C432.228,479.4474 474.60283,486.2136 478.55459,487.40765 C482.50635,488.6017 517.66,507.8487 517.66,507.8487 C517.66,507.8487 553.49585,482.02001 519.9769,455.93564 C486.45795,429.85127 428.84464,410.71809 428.84464,410.71809 L408.17607,404.90423 L390.16271,403.82906 L387.51044,393.65812 L344.84838,396.11956 L300.32717,415.0114 L302.09,463.41331 Z" id="Path" fill="#2F2E41"></path>
                <circle id="Oval" fill="#9F616A" cx="358.39477" cy="224.2606" r="33.23151"></circle>
                <path d="M328.3302,250.9706 L332.32703,250.2836 C332.32703,250.2836 339.54588,278.07847 361.8776,282.66984 C361.8776,282.66984 372.89675,269.46944 372.42636,267.24214 C371.95597,265.01484 381.15301,253.13114 386.04298,259.78368 C390.93295,266.43622 384.84926,383.62445 388.95739,385.72826 C393.06552,387.83207 401.87881,390.06379 394.78556,397.83939 C387.69231,405.61499 359.51828,416.07729 353.27791,412.4667 C347.03754,408.85611 334.28662,378.26555 328.77118,367.97393 C323.25574,357.68231 314.42818,322.67093 314.42818,322.67093 C314.42818,322.67093 303.15561,284.3332 310.09249,275.64784 C317.02937,266.96248 328.3302,250.9706 328.3302,250.9706 Z" id="Path" fill="#D0CDE1"></path>
                <path d="M360.13458,395.24128 C359.391717,403.404442 358.120189,411.51083 356.328,419.5094 C354.69819,426.0174 352.80056,429.94666 350.635,429.77926 C345.10936,429.36626 342.59771,437.4705 341.30278,446.81382 C339.91859,456.72646 339.91859,468.03439 339.15953,472.03072 C338.15491,477.3108 331.72508,481.34058 318.8766,480.15732 C311.224672,479.286943 303.714831,477.445111 296.5285,474.67632 C279.18142,468.36932 279.69487,417.22103 282.59725,379.26725 C284.37211,356.00379 287.04006,337.68554 287.04006,337.68554 C287.04006,337.68554 281.77121,321.96819 280.08561,311.19599 C279.750002,309.230537 279.581947,307.240129 279.583252,305.24623 C279.83999,295.83593 297.01967,270.40686 307.40113,254.56674 C317.79377,238.72662 331.97063,250.34721 331.97063,250.34721 L327.03663,265.23845 C327.03663,265.23845 334.68317,277.03762 334.73904,288.26745 C334.79491,299.49728 353.04612,307.60156 359.59872,313.03787 C363.71782,316.45368 363.6174,362.05407 360.13458,395.24128 Z" id="Path" fill="#2F2E41"></path>
                <path d="M374.56438,255.66852 C374.56438,255.66852 375.7619,257.08407 381.24538,256.39347 C387.82158,255.56526 396.86369,257.84057 398.96438,264.11925 C402.81667,275.63336 413.67703,322.47164 413.67703,322.47164 C413.67703,322.47164 418.19754,376.0194 420.23031,387.84624 C422.26308,399.67308 421.25385,410.14952 423.25817,416.36145 C425.26249,422.57338 403.47091,404.77631 395.43946,407.09337 C387.40801,409.41043 382.2479,379.38844 383.25713,368.91201 C384.26636,358.43558 385.11923,347.04939 382.33307,336.28867 C379.54691,325.52795 384.48653,297.04826 384.30172,290.52359 C384.11691,283.99892 366.59232,267.55455 374.56438,255.66852 Z" id="Path" fill="#2F2E41"></path>
                <path d="M398.078,422.09432 C398.078,422.09432 433.26369,441.29005 436.6311,468.61185 C439.99851,495.93365 389.569,442.15721 389.569,442.15721 L398.078,422.09432 Z" id="Path" fill="#9F616A"></path>
                <path d="M418.16354,402.71929 C418.16354,402.71929 428.94519,457.06416 445.74071,454.17738 C462.53623,451.2906 436.35871,399.59195 436.35871,399.59195 L418.16354,402.71929 Z" id="Path" fill="#9F616A"></path>
                <path d="M475.68359,639.63575 C475.68359,639.63575 467.08359,649.5436 464.95131,648.03682 C462.81903,646.53004 457.91496,667.04225 462.33582,670.96556 C466.75668,674.88887 483.78623,681.32821 483.97104,687.85288 C484.15585,694.37755 529.82853,693.08388 531.46323,686.24646 C533.09793,679.40904 525.73454,663.81526 520.56029,660.95807 C515.38604,658.10088 496.25409,631.80343 496.25409,631.80343 C496.25409,631.80343 481.27005,633.9924 475.68359,639.63575 Z" id="Path" fill="#2F2E41"></path>
                <path d="M392.4734,455.33106 C384.31334,449.57097 361.52994,448.14216 341.30275,446.81378 C332.42832,446.24446 324.04499,445.68632 317.60399,444.78213 C311.39743,443.92256 305.81599,438.2518 300.85967,429.8015 C293.34708,416.99771 287.27447,397.79755 282.59722,379.2672 C284.37208,356.00374 287.04003,337.68549 287.04003,337.68549 C287.04003,337.68549 281.77118,321.96814 280.08558,311.19594 C281.273818,309.542275 282.80437,308.164007 284.57307,307.15494 C306.02807,297.94557 326.51194,388.57694 329.11291,402.79853 C329.1576,403.0329 329.19106,403.25617 329.22458,403.44592 C330.48592,410.76877 344.11582,417.03119 356.32801,419.50932 C363.85177,421.03863 370.85092,421.13912 374.07701,419.1521 C382.54959,413.95023 408.60377,434.76895 410.57956,435.36062 C412.55541,435.9634 404.19442,463.62507 392.4734,455.33106 Z" id="Path" fill="#000000" opacity="0.1"></path>
                <path d="M284.57668,301.576 C284.57668,301.576 268.98288,308.93939 275.83459,343.3538 C282.6863,377.76821 296.48919,436.27696 317.59842,439.20519 C338.70765,442.13342 380.7413,441.46519 392.46866,449.75249 C404.19602,458.03979 412.55435,430.3774 410.57847,429.7804 C408.60259,429.1834 382.54647,408.37274 374.0744,413.5754 C365.60233,418.77806 331.25892,409.69483 329.22615,397.86799 C327.19338,386.04115 306.38241,292.20828 284.57668,301.576 Z" id="Path" fill="#2F2E41"></path>
                <path d="M396.94592,285.07211 L414.08392,324.83916 C414.08392,324.83916 415.80925,323.97842 417.81358,330.19035 C419.81791,336.40228 420.75611,341.86083 424.26721,345.94052 C427.77831,350.02021 443.40073,408.21622 443.86983,410.94552 C444.33893,413.67482 422.29276,423.08384 417.36665,415.50083 C412.44054,407.91782 396.94592,285.07211 396.94592,285.07211 Z" id="Path" fill="#2F2E41"></path>
                <path d="M339.48815,223.79803 C340.76173,223.45798 340.94883,221.76703 340.99152,220.44956 C341.22011,213.39417 345.46862,206.15456 352.2223,204.10062 C354.813809,203.389936 357.527165,203.240609 360.18101,203.66262 C363.969201,204.167188 367.626904,205.387463 370.95924,207.25843 C372.71824,208.24734 374.4436,209.43843 376.43877,209.74043 C377.75644,209.93994 383.46182,211.59877 384.7739,211.83221 C387.65865,212.34547 390.33958,214.92647 393.10774,213.96603 C395.75606,213.04716 396.3423,209.6182 396.40631,206.81574 C396.55214,200.43116 391.70531,191.59466 387.43631,186.84503 C384.19666,183.24071 379.31867,181.5769 374.55023,180.71175 C368.980073,179.816733 363.335214,179.473333 357.69764,179.68654 C350.06649,179.82264 342.22381,180.41165 335.34264,183.71354 C328.46147,187.01543 322.68146,193.58704 322.35164,201.21228 C322.28293,202.80068 322.44679,204.39572 322.31324,205.97999 C321.98744,209.84481 319.93518,213.33566 318.97246,217.09281 C317.58067,222.66752 318.612273,228.570841 321.8122,233.34315 C324.366,237.10143 328.37981,240.50054 328.2322,245.042 L333.76962,239.3051 C335.473974,238.003748 336.037551,235.688564 335.12201,233.74946 L333.16201,226.1043 C332.658169,224.739462 332.598765,223.250264 332.99229,221.84963 C335.09337,216.65753 337.36469,224.36497 339.48815,223.79803 Z" id="Path" fill="#2F2E41"></path>
            </g>
            <rect id="Rectangle" fill="#3F51B5" fill-rule="nonzero" transform="translate(818.500000, 363.500000) scale(-1, 1) translate(-818.500000, -363.500000) " x="784" y="325" width="69" height="77"></rect>
            <rect id="Rectangle" stroke="#3F3D56" transform="translate(830.500000, 356.500000) scale(-1, 1) translate(-830.500000, -356.500000) " x="796" y="318" width="69" height="77"></rect>
            <rect id="Rectangle" fill="#3F51B5" fill-rule="nonzero" transform="translate(723.500000, 562.500000) scale(-1, 1) translate(-723.500000, -562.500000) " x="689" y="524" width="69" height="77"></rect>
            <rect id="Rectangle" stroke="#3F3D56" transform="translate(735.500000, 555.500000) scale(-1, 1) translate(-735.500000, -555.500000) " x="701" y="517" width="69" height="77"></rect>
            <g id="Group" transform="translate(453.000000, 217.000000)">
                <g id="R" fill="#2F1136" font-family="AvenirNext-Bold, Avenir Next" font-size="104" font-weight="bold" letter-spacing="-1.087879">
                    <text>
                        <tspan x="0.5679395" y="104">R </tspan>
                    </text>
                </g>
                <g id="R" transform="translate(119.500000, 35.000000) scale(-1, 1) translate(-119.500000, -35.000000) translate(85.000000, 0.500000)" fill="#2F1136" font-family="AvenirNext-Bold, Avenir Next" font-size="104" font-weight="bold" letter-spacing="-1.087879">
                    <text>
                        <tspan x="0.5679395" y="104">R </tspan>
                    </text>
                </g>
                <path d="M77,34.5 L77,100.5" id="Line" stroke="#2F1136" stroke-width="7" stroke-linecap="square"></path>
            </g>
            <text id="Sign-up-and-start-re" font-family="AvenirNext-Bold, Avenir Next" font-size="30" font-weight="bold" letter-spacing="-0.31381125" fill="#2F1136">
                <tspan x="453" y="384">Sign up and start </tspan>
                <tspan x="453" y="425">reflecting today.</tspan>
            </text>
        </g>
    </g>
</svg>